<svg id="Flat" height="512" viewBox="0 0 512 512" width="512" xmlns="http://www.w3.org/2000/svg"><path d="m376 488h-304a32 32 0 0 1 -32-32v-400a32 32 0 0 1 32-32h240l96 96v336a32 32 0 0 1 -32 32z" fill="#e9eef2"/><g fill="#c3c6c7"><path d="m408 120h-64a32 32 0 0 1 -32-32v-64z"/><path d="m360 176h-192a8 8 0 0 1 0-16h192a8 8 0 0 1 0 16z"/><path d="m248 224h-160a8 8 0 0 1 0-16h160a8 8 0 0 1 0 16z"/><path d="m280 272h-64a8 8 0 0 1 0-16h64a8 8 0 0 1 0 16z"/><path d="m232 320h-144a8 8 0 0 1 0-16h144a8 8 0 0 1 0 16z"/><path d="m136 176h-48a8 8 0 0 1 0-16h48a8 8 0 0 1 0 16z"/><path d="m360 224h-80a8 8 0 0 1 0-16h80a8 8 0 0 1 0 16z"/><path d="m184 272h-96a8 8 0 0 1 0-16h96a8 8 0 0 1 0 16z"/><path d="m216 416h-32a8 8 0 0 1 0-16h32a8 8 0 0 1 0 16z"/><path d="m152 416h-64a8 8 0 0 1 0-16h64a8 8 0 0 1 0 16z"/><path d="m136 368h-48a8 8 0 0 1 0-16h48a8 8 0 0 1 0 16z"/><path d="m184 128h-96a8 8 0 0 1 0-16h96a8 8 0 0 1 0 16z"/><path d="m216 368h-48a8 8 0 0 1 0-16h48a8 8 0 0 1 0 16z"/></g><path d="m472 384a104 104 0 1 1 -32-75.047 104 104 0 0 1 32 75.047z" fill="#eb423f"/><path d="m368 416a8 8 0 0 1 -8-8v-80a8 8 0 0 1 16 0v80a8 8 0 0 1 -8 8z" fill="#e9eef2"/><circle cx="368" cy="440" fill="#e9eef2" r="8"/></svg>